<?xml version="1.0" encoding="UTF-8"?>
<!DOCTYPE svg PUBLIC "-//W3C//DTD SVG 1.1//EN" "http://www.w3.org/Graphics/SVG/1.1/DTD/svg11.dtd">
<!-- Creator: CorelDRAW 2018 -->
<svg xmlns="http://www.w3.org/2000/svg" xml:space="preserve" width="36mm" height="36mm" version="1.1" style="shape-rendering:geometricPrecision; text-rendering:geometricPrecision; image-rendering:optimizeQuality; fill-rule:evenodd; clip-rule:evenodd"
viewBox="0 0 1163.19 1163.19"
 xmlns:xlink="http://www.w3.org/1999/xlink">
 <defs>
  <style type="text/css">
   <![CDATA[
    .str0 {stroke:white;stroke-width:32.31;stroke-miterlimit:22.9256}
    .str1 {stroke:white;stroke-width:16.16;stroke-miterlimit:22.9256}
    .fil2 {fill:#FEFEFE}
    .fil1 {fill:#EF7F1A}
    .fil4 {fill:#E5097F}
    .fil0 {fill:#E51A4B}
    .fil3 {fill:#E31E24}
    .fil5 {fill:#009846}
   ]]>
  </style>
 </defs>
 <g id="Layer_x0020_1">
  <metadata id="CorelCorpID_0Corel-Layer"/>
  <circle class="fil0 str0" cx="581.59" cy="581.59" r="565.44"/>
  <g id="_858879320">
   <circle class="fil1 str0" cx="374.54" cy="802.52" r="170.45"/>
   <rect class="fil2 str1" x="252.78" y="778.17" width="243.51" height="48.7" rx="12.58" ry="9.74"/>
  </g>
  <g id="_858879224">
   <circle class="fil3 str0" cx="779.75" cy="382.47" r="170.45"/>
   <path class="fil2 str1" d="M769.02 260.72l29.22 0c5.36,0 9.75,4.38 9.76,9.74l0.17 75.13 83.54 0c5.36,0 9.75,4.38 9.76,9.74l0.06 29.22c0.01,5.36 -4.36,9.74 -9.72,9.74l-83.54 0 0.22 100.2c0.01,5.36 -4.36,9.74 -9.72,9.74l-29.22 0c-5.36,0 -9.75,-4.38 -9.76,-9.74l-0.23 -100.2 -91.79 0c-5.36,0 -9.75,-4.38 -9.76,-9.74l-0.06 -29.22c-0.01,-5.36 4.36,-9.74 9.72,-9.74l91.79 0 -0.17 -75.13c-0.01,-5.36 4.36,-9.74 9.72,-9.74z"/>
  </g>
  <g id="_858880400">
   <circle class="fil4 str0" cx="772.94" cy="802.52" r="170.45"/>
   <path class="fil2 str1" d="M666.51 718.89l22.81 -22.81c4.18,-4.18 11.02,-4.18 15.21,0l68.42 68.42 68.42 -68.42c4.18,-4.18 11.02,-4.18 15.21,0l22.81 22.81c4.18,4.18 4.18,11.02 -0,15.21l-68.42 68.42 68.42 68.42c4.18,4.18 4.18,11.02 0,15.21l-22.81 22.81c-4.18,4.18 -11.02,4.18 -15.21,0l-68.42 -68.42 -68.42 68.42c-4.18,4.18 -11.02,4.18 -15.21,0l-22.81 -22.81c-4.18,-4.18 -4.18,-11.02 0,-15.21l68.42 -68.42 -68.42 -68.42c-4.18,-4.18 -4.18,-11.02 -0,-15.21z"/>
  </g>
  <g id="_858880952">
   <circle class="fil5 str0" cx="383.26" cy="382.47" r="170.45"/>
   <rect class="fil2 str1" transform="matrix(0.235295 -0.235295 0.182235 0.182235 269.22 458.493)" width="807.77" height="208.59" rx="41.72" ry="41.72"/>
   <ellipse class="fil2 str1" cx="447.22" cy="442.12" rx="19.5" ry="17.38"/>
   <ellipse class="fil2 str1" cx="323.52" cy="323.7" rx="19.5" ry="17.38"/>
  </g>
 </g>
</svg>
